<svg width="70" height="63" viewBox="0 0 70 63" fill="none" xmlns="http://www.w3.org/2000/svg">
<path d="M52.5 62.0253H70V41.3502H52.5V62.0253ZM0 20.6751H17.5V0H0V20.6751ZM35 0V20.6751H17.5V62.0253H35V41.3502H52.5V0H35Z" fill="#FF3237"/>
<path d="M30.1965 47.8269V55.5493H28.5191L24.3107 50.8872V55.5493H22.3033V47.8269H23.9665L28.1892 52.489V47.8269H30.1965Z" fill="white"/>
<path d="M12.5729 8.47859H9.77552V14.1983H7.72478V8.47859H4.92737V6.47656H12.5729V8.47859Z" fill="white"/>
<path d="M43.7577 33.0291C45.0766 33.0291 45.9367 32.371 45.9367 31.0129C45.9367 29.6547 45.0766 28.9824 43.7577 28.9824C42.4244 28.9824 41.5643 29.6547 41.5643 31.0129C41.5637 32.371 42.4244 33.0291 43.7577 33.0291ZM43.7577 27.0806C46.3528 27.0806 47.944 28.4536 47.944 31.0129C47.944 33.5728 46.3528 34.9452 43.7577 34.9452C41.1482 34.9452 39.557 33.5728 39.557 31.0129C39.557 28.453 41.1482 27.0806 43.7577 27.0806Z" fill="white"/>
<path d="M44.7747 6.47656H42.7246V14.1983H44.7747V6.47656Z" fill="white"/>
<path d="M24.806 30.913H26.6869C27.5619 30.913 27.9346 30.613 27.9346 29.9407C27.9346 29.2542 27.5619 28.9685 26.6869 28.9685H24.806V30.913ZM28.0636 34.8737C27.7337 34.1445 27.3033 33.372 26.9307 32.7288H26.7589H24.806V34.8737H22.7987V27.152H26.7589C28.8809 27.152 29.9847 28.2102 29.9847 29.9401C29.9847 30.9841 29.5835 31.785 28.809 32.2569C29.2102 32.915 29.7981 33.9015 30.3432 34.8737H28.0636Z" fill="white"/>
<path d="M62.2747 47.8269H60.2246V55.5486H62.2747V47.8269Z" fill="white"/>
</svg>
